<svg version="1" xmlns="http://www.w3.org/2000/svg" width="933.333" height="933.333" viewBox="0 0 700.000000 700.000000"><path d="M79.5 118.2c-4.6 1.3-5.6 2.4-13.4 16.1-8.4 14.5-6.9 13.9-18.8 7.6-8.4-4.4-11.9-5.2-15-3.1C29.5 140.6 20 159 20 162.6c0 1.5.8 3.7 1.7 4.8 1.7 1.9 1.6 1.9-2-.2-8.3-4.8-15.4-1.4-18.3 8.6-2.8 9.6-.3 20.3 6.4 27.1 1.5 1.5 16 11 32.2 21 27.2 17 34.5 21.5 44 27.6 5.4 3.5 78.3 48.9 80.2 50 2.3 1.3 20.9 12.9 27.3 17 2.8 1.8 10 6.3 16 10 6.1 3.7 12.1 7.5 13.5 8.4 1.4.9 15.4 9.7 31.2 19.6l28.7 17.8-3.2 1.7c-1.8.9-12.2 6.3-23.2 12s-24.5 12.6-30 15.5c-11.5 6-30.1 15.7-53 27.5-17.3 8.9-21.2 11.4-26.4 16.9-4.8 5.1-7.6 11.3-10.4 22.9-2.9 11.7-8.1 22.2-14.4 29.2-2.4 2.7-8.8 8.2-14.1 12.1-12.1 9-14.5 11.2-19.1 17.4-6.2 8.4-9.5 18.1-10 28.7-.4 9.5 3.6 24.8 6.4 24.8 1.3 0 110.2-67.4 119.7-74.1 1.5-1 2.9-1.9 3.2-1.9.4 0 7.7-4.5 14.6-9 2.3-1.5 35.1-22 82.5-51.5 23.7-14.7 43.8-27.4 44.8-28.3 1.6-1.4 1.7 1 1.7 49.1 0 36.7.3 50.7 1.1 50.7.6 0 3.3-1.6 5.9-3.5 2.6-1.9 5.8-3.5 7.1-3.5 1.3 0 4.7 1.6 7.6 3.6 2.9 2 5.6 3.3 6.1 3 .5-.3.8-18.6.8-41.1-.1-34.1.1-40.4 1.3-40 .7.3 14.1 8.5 29.7 18.3 15.7 9.7 29.6 18.4 30.9 19.2 1.4.8 10 6.2 19.3 12 9.2 5.8 17.6 11 18.7 11.6 2.1 1.2 22.4 13.9 28.5 17.9 5.6 3.6 31.2 19.6 34.5 21.5 1.7 1 18.9 11.7 38.3 23.9 19.5 12.1 36 22.1 36.7 22.1 1.5 0 4.1-6.6 5.6-14.5 2-10.5 0-22.3-5.4-33-3.5-7-9.9-13.7-21.3-22.1-18.2-13.5-25.4-23.7-30-42.7-2.6-10.6-6.5-18.8-11.2-23.6-4.7-4.7-9.3-7.6-24.2-15.4-8-4.1-22.1-11.4-31.5-16.2-9.3-4.8-21.5-11.1-27-14-5.5-2.9-18.3-9.5-28.5-14.8-10.2-5.3-19.8-10.2-21.3-11l-2.9-1.5 4.9-2.8c2.6-1.5 7.7-4.7 11.3-7 6.6-4.2 113.8-71.1 155-96.7 12.4-7.7 24.8-15.4 27.5-17.2 2.8-1.8 19.9-12.5 38-23.8 18.2-11.3 34.1-21.4 35.5-22.5 1.4-1.1 3.9-4.4 5.5-7.4 2.6-4.6 3-6.3 2.9-12.8-.2-15.8-7.6-22.5-18.7-16.9-4 2-4.1 2.1-2.4.2 2.7-3.1 2-6.8-3.4-17.4-3.7-7.1-5.9-10.4-8-11.4-3.6-1.9-3.2-2-15.4 4.1l-10.2 5.1-1.9-3.6c-4.4-8.4-11.8-20.8-13.7-22.8-4.5-5-2.3-5.4-80.3 14.2-80.7 20.3-79.2 19.9-93 25.6-25.6 10.6-45 24-65.7 45.3-5 5.1-8.6 8.2-8.3 7 .9-2.9-1.6-4.9-4.1-3.4-3 1.9-15.1 19.1-18.7 26.5-1.8 3.8-3.7 8.8-4.1 11-.5 2.2-.9 4.3-1 4.7-.2.5-.3 2.5-.4 4.5l-.2 3.8-3.7-7.2c-16.2-31.5-38.3-56.5-66.2-75-10.3-6.9-24.8-14.4-35-18.3-4.7-1.8-9.4-3.6-10.5-4-2.5-1.1 4.4.7-79.5-20.4-57.5-14.4-73.1-18.1-75.5-17.4z"/></svg>